<svg width="692" height="139" viewBox="0 0 692 139" fill="none" xmlns="http://www.w3.org/2000/svg">
<path d="M243.944 119.941C235.88 119.941 228.973 118.186 223.224 114.677C217.475 111.13 213.051 106.202 209.952 99.8927C206.891 93.5834 205.36 86.2661 205.36 77.9407C205.36 69.6154 206.891 62.2981 209.952 55.9887C213.051 49.6794 217.475 44.7701 223.224 41.2607C228.973 37.7141 235.88 35.9407 243.944 35.9407C252.008 35.9407 258.915 37.7141 264.664 41.2607C270.451 44.7701 274.875 49.6794 277.936 55.9887C281.035 62.2981 282.584 69.6154 282.584 77.9407C282.584 86.2661 281.035 93.5834 277.936 99.8927C274.875 106.202 270.451 111.13 264.664 114.677C258.915 118.186 252.008 119.941 243.944 119.941ZM243.944 107.229C249.357 107.266 253.856 106.071 257.44 103.645C261.061 101.218 263.768 97.8021 265.56 93.3967C267.389 88.9914 268.304 83.8394 268.304 77.9407C268.304 72.0421 267.389 66.9274 265.56 62.5967C263.768 58.2287 261.061 54.8314 257.44 52.4047C253.856 49.9781 249.357 48.7274 243.944 48.6527C238.531 48.6154 234.032 49.8101 230.448 52.2367C226.864 54.6634 224.157 58.0794 222.328 62.4847C220.536 66.8901 219.64 72.0421 219.64 77.9407C219.64 83.8394 220.536 88.9727 222.328 93.3407C224.12 97.6714 226.808 101.05 230.392 103.477C234.013 105.903 238.531 107.154 243.944 107.229ZM293.731 118.261V37.6207H307.395L344.803 94.4607V37.6207H358.467V118.261H344.803L307.395 61.4207V118.261H293.731ZM374.121 118.261V37.6207H426.201V50.2767H387.617V70.1567H419.481V82.8127H387.617V105.605H426.201V118.261H374.121ZM470.897 119.941C462.833 119.941 455.926 118.186 450.177 114.677C444.428 111.13 440.004 106.202 436.905 99.8927C433.844 93.5834 432.313 86.2661 432.313 77.9407C432.313 69.6154 433.844 62.2981 436.905 55.9887C440.004 49.6794 444.428 44.7701 450.177 41.2607C455.926 37.7141 462.833 35.9407 470.897 35.9407C480.193 35.9407 487.94 38.2741 494.137 42.9407C500.334 47.5701 504.684 53.8234 507.185 61.7007L493.577 65.4527C492.009 60.1887 489.34 56.0821 485.569 53.1327C481.798 50.1461 476.908 48.6527 470.897 48.6527C465.484 48.6527 460.966 49.8661 457.345 52.2927C453.761 54.7194 451.054 58.1354 449.225 62.5407C447.433 66.9087 446.518 72.0421 446.481 77.9407C446.481 83.8394 447.377 88.9914 449.169 93.3967C450.998 97.7647 453.724 101.162 457.345 103.589C460.966 106.015 465.484 107.229 470.897 107.229C476.908 107.229 481.798 105.735 485.569 102.749C489.34 99.7621 492.009 95.6554 493.577 90.4287L507.185 94.1807C504.684 102.058 500.334 108.33 494.137 112.997C487.94 117.626 480.193 119.941 470.897 119.941ZM546.193 119.941C540.145 119.941 534.862 118.578 530.345 115.853C525.827 113.127 522.318 109.375 519.817 104.597C517.353 99.7807 516.121 94.2554 516.121 88.0207C516.121 81.6741 517.39 76.1114 519.929 71.3327C522.467 66.5541 525.995 62.8207 530.513 60.1327C535.03 57.4447 540.257 56.1007 546.193 56.1007C552.278 56.1007 557.579 57.4634 562.097 60.1887C566.614 62.9141 570.123 66.6847 572.625 71.5007C575.126 76.2794 576.377 81.7861 576.377 88.0207C576.377 94.2927 575.107 99.8367 572.569 104.653C570.067 109.431 566.558 113.183 562.041 115.909C557.523 118.597 552.241 119.941 546.193 119.941ZM546.193 107.285C551.569 107.285 555.563 105.493 558.177 101.909C560.79 98.3247 562.097 93.6954 562.097 88.0207C562.097 82.1594 560.771 77.4927 558.121 74.0207C555.47 70.5114 551.494 68.7567 546.193 68.7567C542.571 68.7567 539.585 69.5781 537.233 71.2207C534.918 72.8261 533.201 75.0847 532.081 77.9967C530.961 80.8714 530.401 84.2127 530.401 88.0207C530.401 93.8821 531.726 98.5674 534.377 102.077C537.065 105.549 541.003 107.285 546.193 107.285ZM588.715 118.261V57.7807H600.643V72.5087L599.187 70.6047C599.934 68.5887 600.923 66.7594 602.155 65.1167C603.424 63.4367 604.936 62.0554 606.691 60.9727C608.184 59.9647 609.827 59.1807 611.619 58.6207C613.448 58.0234 615.315 57.6687 617.219 57.5567C619.123 57.4074 620.971 57.4821 622.763 57.7807V70.3807C620.971 69.8581 618.899 69.6901 616.547 69.8767C614.232 70.0634 612.142 70.7167 610.275 71.8367C608.408 72.8447 606.878 74.1327 605.683 75.7007C604.526 77.2687 603.667 79.0607 603.107 81.0767C602.547 83.0554 602.267 85.2021 602.267 87.5167V118.261H588.715ZM659.852 119.941C653.729 119.941 648.353 118.615 643.724 115.965C639.094 113.314 635.473 109.637 632.86 104.933C630.284 100.229 628.996 94.8154 628.996 88.6927C628.996 82.0847 630.265 76.3541 632.804 71.5007C635.342 66.6101 638.87 62.8207 643.388 60.1327C647.905 57.4447 653.132 56.1007 659.068 56.1007C665.34 56.1007 670.66 57.5754 675.028 60.5247C679.433 63.4367 682.7 67.5621 684.828 72.9007C686.956 78.2394 687.758 84.5301 687.236 91.7727H673.852V86.8447C673.814 80.2741 672.657 75.4767 670.38 72.4527C668.102 69.4287 664.518 67.9167 659.628 67.9167C654.102 67.9167 649.996 69.6341 647.308 73.0687C644.62 76.4661 643.276 81.4501 643.276 88.0207C643.276 94.1434 644.62 98.8847 647.308 102.245C649.996 105.605 653.916 107.285 659.068 107.285C662.39 107.285 665.246 106.557 667.636 105.101C670.062 103.607 671.929 101.461 673.236 98.6607L686.564 102.693C684.249 108.143 680.665 112.381 675.812 115.405C670.996 118.429 665.676 119.941 659.852 119.941ZM639.02 91.7727V81.5807H680.628V91.7727H639.02Z" fill="black"/>
<g clip-path="url(#clip0_22_5)">
<path d="M42.458 139C39.3449 139 36.2428 138.109 33.5338 136.338L7.46046 119.292C2.78538 116.235 0 111.066 0 105.457V51.3921C0 46.1902 2.17369 41.1862 5.97492 37.656L42.4143 3.79405C47.1877 -0.649027 54.3314 -1.2539 59.782 2.30935L82.0323 16.8593C84.5228 18.487 84.8723 22.0392 82.7314 24.1178L78.2748 28.4509C76.7237 29.9576 74.3425 30.1885 72.5402 29.0118L52.1686 15.6826L16.3518 48.9726C15.6855 49.5995 15.2923 50.4793 15.2923 51.3921V105.457C15.2923 105.831 15.478 106.183 15.7948 106.381L41.8682 123.427C41.9992 123.515 42.4143 123.79 42.9823 123.471C43.5503 123.163 43.5503 122.668 43.5503 122.503V77.8746C43.5503 72.8266 45.6148 67.9327 49.2194 64.4244L81.0383 33.4879C87.2972 27.4061 96.7566 26.4823 104.053 31.2553L133.546 50.5453C138.821 53.9986 142 59.8933 142 66.228V110.406C142 114.871 140.121 119.215 136.637 121.986C131.754 125.858 125.124 126.078 120.066 122.778L93.6545 105.512C88.3568 102.048 85.2 96.1858 85.2 89.8291V59.6404L91.9723 53.0418C95.1618 49.9404 100.492 52.2169 100.492 56.682V89.8291C100.492 90.9509 101.049 91.9846 101.989 92.6005L126.708 108.767V66.228C126.708 65.1063 126.151 64.0725 125.211 63.4566L95.7189 44.1666C94.43 43.3198 92.7588 43.4848 91.6555 44.5625L59.8366 75.4991C59.1922 76.126 58.8317 76.9728 58.8317 77.8746V122.008C58.8317 127.815 56.0572 133.38 51.1746 136.47C48.4985 138.164 45.4618 139.011 42.4471 139.011L42.458 139Z" fill="black"/>
</g>
<defs>
<clipPath id="clip0_22_5">
<rect width="142" height="139" fill="white"/>
</clipPath>
</defs>
</svg>
