<svg width="692" height="139" viewBox="0 0 692 139" fill="none" xmlns="http://www.w3.org/2000/svg">
<path d="M236.552 114.31C230.504 114.31 225.221 112.948 220.704 110.222C216.187 107.497 212.677 103.745 210.176 98.9664C207.712 94.1504 206.48 88.625 206.48 82.3904C206.48 76.0437 207.749 70.481 210.288 65.7024C212.827 60.9237 216.355 57.1904 220.872 54.5024C225.389 51.8144 230.616 50.4704 236.552 50.4704C242.637 50.4704 247.939 51.833 252.456 54.5584C256.973 57.2837 260.483 61.0544 262.984 65.8704C265.485 70.649 266.736 76.1557 266.736 82.3904C266.736 88.6624 265.467 94.2064 262.928 99.0224C260.427 103.801 256.917 107.553 252.4 110.278C247.883 112.966 242.6 114.31 236.552 114.31ZM236.552 101.654C241.928 101.654 245.923 99.8624 248.536 96.2784C251.149 92.6944 252.456 88.065 252.456 82.3904C252.456 76.529 251.131 71.8624 248.48 68.3904C245.829 64.881 241.853 63.1264 236.552 63.1264C232.931 63.1264 229.944 63.9477 227.592 65.5904C225.277 67.1957 223.56 69.4544 222.44 72.3664C221.32 75.241 220.76 78.5824 220.76 82.3904C220.76 88.2517 222.085 92.937 224.736 96.4464C227.424 99.9184 231.363 101.654 236.552 101.654ZM320.906 112.63V83.5104C320.906 81.6064 320.776 79.497 320.514 77.1824C320.253 74.8677 319.637 72.6464 318.666 70.5184C317.733 68.353 316.314 66.5797 314.41 65.1984C312.544 63.817 310.005 63.1264 306.794 63.1264C305.077 63.1264 303.378 63.4064 301.698 63.9664C300.018 64.5264 298.488 65.497 297.106 66.8784C295.762 68.2224 294.68 70.089 293.858 72.4784C293.037 74.8304 292.626 77.8544 292.626 81.5504L284.618 78.1344C284.618 72.9824 285.608 68.3157 287.586 64.1344C289.602 59.953 292.552 56.6304 296.434 54.1664C300.317 51.665 305.096 50.4144 310.77 50.4144C315.25 50.4144 318.946 51.161 321.858 52.6544C324.77 54.1477 327.085 56.0517 328.802 58.3664C330.52 60.681 331.789 63.145 332.61 65.7584C333.432 68.3717 333.954 70.8544 334.178 73.2064C334.44 75.521 334.57 77.4064 334.57 78.8624V112.63H320.906ZM278.962 112.63V52.1504H291.002V70.9104H292.626V112.63H278.962ZM375.695 114.31C369.573 114.31 364.197 112.985 359.567 110.334C354.938 107.684 351.317 104.006 348.703 99.3024C346.127 94.5984 344.839 89.185 344.839 83.0624C344.839 76.4544 346.109 70.7237 348.647 65.8704C351.186 60.9797 354.714 57.1904 359.231 54.5024C363.749 51.8144 368.975 50.4704 374.911 50.4704C381.183 50.4704 386.503 51.945 390.871 54.8944C395.277 57.8064 398.543 61.9317 400.671 67.2704C402.799 72.609 403.602 78.8997 403.079 86.1424H389.695V81.2144C389.658 74.6437 388.501 69.8464 386.223 66.8224C383.946 63.7984 380.362 62.2864 375.471 62.2864C369.946 62.2864 365.839 64.0037 363.151 67.4384C360.463 70.8357 359.119 75.8197 359.119 82.3904C359.119 88.513 360.463 93.2544 363.151 96.6144C365.839 99.9744 369.759 101.654 374.911 101.654C378.234 101.654 381.09 100.926 383.479 99.4704C385.906 97.977 387.773 95.8304 389.079 93.0304L402.407 97.0624C400.093 102.513 396.509 106.75 391.655 109.774C386.839 112.798 381.519 114.31 375.695 114.31ZM354.863 86.1424V75.9504H396.471V86.1424H354.863ZM441.838 114.31C435.604 114.31 430.284 112.929 425.878 110.166C421.473 107.366 418.094 103.558 415.742 98.7424C413.428 93.9264 412.252 88.4757 412.214 82.3904C412.252 76.193 413.465 70.705 415.854 65.9264C418.281 61.1104 421.716 57.3397 426.158 54.6144C430.601 51.8517 435.884 50.4704 442.006 50.4704C448.876 50.4704 454.681 52.2064 459.422 55.6784C464.201 59.113 467.318 63.817 468.774 69.7904L455.334 73.4304C454.289 70.1824 452.553 67.6624 450.126 65.8704C447.7 64.041 444.937 63.1264 441.838 63.1264C438.329 63.1264 435.436 63.9664 433.158 65.6464C430.881 67.289 429.201 69.5664 428.118 72.4784C427.036 75.3904 426.494 78.6944 426.494 82.3904C426.494 88.1397 427.782 92.7877 430.358 96.3344C432.934 99.881 436.761 101.654 441.838 101.654C445.422 101.654 448.241 100.833 450.294 99.1904C452.385 97.5477 453.953 95.177 454.998 92.0784L468.774 95.1584C466.908 101.318 463.641 106.06 458.974 109.382C454.308 112.668 448.596 114.31 441.838 114.31ZM505.068 114.31C499.02 114.31 493.737 112.948 489.22 110.222C484.702 107.497 481.193 103.745 478.692 98.9664C476.228 94.1504 474.996 88.625 474.996 82.3904C474.996 76.0437 476.265 70.481 478.804 65.7024C481.342 60.9237 484.87 57.1904 489.388 54.5024C493.905 51.8144 499.132 50.4704 505.068 50.4704C511.153 50.4704 516.454 51.833 520.972 54.5584C525.489 57.2837 528.998 61.0544 531.5 65.8704C534.001 70.649 535.252 76.1557 535.252 82.3904C535.252 88.6624 533.982 94.2064 531.444 99.0224C528.942 103.801 525.433 107.553 520.916 110.278C516.398 112.966 511.116 114.31 505.068 114.31ZM505.068 101.654C510.444 101.654 514.438 99.8624 517.052 96.2784C519.665 92.6944 520.972 88.065 520.972 82.3904C520.972 76.529 519.646 71.8624 516.996 68.3904C514.345 64.881 510.369 63.1264 505.068 63.1264C501.446 63.1264 498.46 63.9477 496.108 65.5904C493.793 67.1957 492.076 69.4544 490.956 72.3664C489.836 75.241 489.276 78.5824 489.276 82.3904C489.276 88.2517 490.601 92.937 493.252 96.4464C495.94 99.9184 499.878 101.654 505.068 101.654ZM547.59 112.63V52.1504H559.518V66.8784L558.062 64.9744C558.809 62.9584 559.798 61.129 561.03 59.4864C562.299 57.8064 563.811 56.425 565.566 55.3424C567.059 54.3344 568.702 53.5504 570.494 52.9904C572.323 52.393 574.19 52.0384 576.094 51.9264C577.998 51.777 579.846 51.8517 581.638 52.1504V64.7504C579.846 64.2277 577.774 64.0597 575.422 64.2464C573.107 64.433 571.017 65.0864 569.15 66.2064C567.283 67.2144 565.753 68.5024 564.558 70.0704C563.401 71.6384 562.542 73.4304 561.982 75.4464C561.422 77.425 561.142 79.5717 561.142 81.8864V112.63H547.59ZM618.727 114.31C612.604 114.31 607.228 112.985 602.599 110.334C597.969 107.684 594.348 104.006 591.735 99.3024C589.159 94.5984 587.871 89.185 587.871 83.0624C587.871 76.4544 589.14 70.7237 591.679 65.8704C594.217 60.9797 597.745 57.1904 602.263 54.5024C606.78 51.8144 612.007 50.4704 617.943 50.4704C624.215 50.4704 629.535 51.945 633.903 54.8944C638.308 57.8064 641.575 61.9317 643.703 67.2704C645.831 72.609 646.633 78.8997 646.111 86.1424H632.727V81.2144C632.689 74.6437 631.532 69.8464 629.255 66.8224C626.977 63.7984 623.393 62.2864 618.503 62.2864C612.977 62.2864 608.871 64.0037 606.183 67.4384C603.495 70.8357 602.151 75.8197 602.151 82.3904C602.151 88.513 603.495 93.2544 606.183 96.6144C608.871 99.9744 612.791 101.654 617.943 101.654C621.265 101.654 624.121 100.926 626.511 99.4704C628.937 97.977 630.804 95.8304 632.111 93.0304L645.439 97.0624C643.124 102.513 639.54 106.75 634.687 109.774C629.871 112.798 624.551 114.31 618.727 114.31ZM597.895 86.1424V75.9504H639.503V86.1424H597.895Z" fill="#1200FF"/>
<g clip-path="url(#clip0_22_18)">
<path d="M42.458 139C39.3449 139 36.2428 138.109 33.5338 136.338L7.46046 119.292C2.78538 116.235 0 111.066 0 105.457V51.3921C0 46.1902 2.17369 41.1862 5.97492 37.656L42.4143 3.79405C47.1877 -0.649027 54.3314 -1.2539 59.782 2.30936L82.0323 16.8593C84.5228 18.487 84.8723 22.0392 82.7314 24.1178L78.2748 28.4509C76.7237 29.9576 74.3425 30.1885 72.5402 29.0118L52.1686 15.6826L16.3518 48.9726C15.6855 49.5995 15.2923 50.4793 15.2923 51.3921V105.457C15.2923 105.831 15.478 106.183 15.7948 106.381L41.8682 123.427C41.9992 123.515 42.4143 123.79 42.9823 123.471C43.5503 123.163 43.5503 122.668 43.5503 122.503V77.8746C43.5503 72.8266 45.6148 67.9327 49.2194 64.4244L81.0383 33.4879C87.2972 27.4061 96.7566 26.4823 104.053 31.2553L133.546 50.5453C138.821 53.9986 142 59.8933 142 66.228V110.406C142 114.871 140.121 119.215 136.637 121.986C131.754 125.858 125.124 126.078 120.066 122.778L93.6545 105.512C88.3568 102.048 85.2 96.1858 85.2 89.8291V59.6404L91.9723 53.0418C95.1618 49.9404 100.492 52.2169 100.492 56.682V89.8291C100.492 90.9509 101.049 91.9846 101.989 92.6005L126.708 108.767V66.228C126.708 65.1062 126.151 64.0725 125.211 63.4566L95.7189 44.1666C94.43 43.3198 92.7588 43.4848 91.6555 44.5625L59.8366 75.4991C59.1922 76.126 58.8317 76.9728 58.8317 77.8746V122.008C58.8317 127.815 56.0572 133.38 51.1746 136.47C48.4985 138.164 45.4618 139.011 42.4471 139.011L42.458 139Z" fill="#1200FF"/>
</g>
<defs>
<clipPath id="clip0_22_18">
<rect width="142" height="139" fill="white"/>
</clipPath>
</defs>
</svg>
