<svg width="450" height="315" viewBox="0 0 450 315" fill="none" xmlns="http://www.w3.org/2000/svg">
<path d="M35.1692 300.68C29.1212 300.68 23.8385 299.317 19.3212 296.592C14.8039 293.867 11.2945 290.115 8.79319 285.336C6.32919 280.52 5.09719 274.995 5.09719 268.76C5.09719 262.413 6.36652 256.851 8.90519 252.072C11.4439 247.293 14.9719 243.56 19.4892 240.872C24.0065 238.184 29.2332 236.84 35.1692 236.84C41.2545 236.84 46.5559 238.203 51.0732 240.928C55.5905 243.653 59.0999 247.424 61.6012 252.24C64.1025 257.019 65.3532 262.525 65.3532 268.76C65.3532 275.032 64.0839 280.576 61.5452 285.392C59.0439 290.171 55.5345 293.923 51.0172 296.648C46.4999 299.336 41.2172 300.68 35.1692 300.68ZM35.1692 288.024C40.5452 288.024 44.5399 286.232 47.1532 282.648C49.7665 279.064 51.0732 274.435 51.0732 268.76C51.0732 262.899 49.7479 258.232 47.0972 254.76C44.4465 251.251 40.4705 249.496 35.1692 249.496C31.5479 249.496 28.5612 250.317 26.2092 251.96C23.8945 253.565 22.1772 255.824 21.0572 258.736C19.9372 261.611 19.3772 264.952 19.3772 268.76C19.3772 274.621 20.7025 279.307 23.3532 282.816C26.0412 286.288 29.9799 288.024 35.1692 288.024ZM119.524 299V269.88C119.524 267.976 119.393 265.867 119.132 263.552C118.87 261.237 118.254 259.016 117.284 256.888C116.35 254.723 114.932 252.949 113.028 251.568C111.161 250.187 108.622 249.496 105.412 249.496C103.694 249.496 101.996 249.776 100.316 250.336C98.6356 250.896 97.1049 251.867 95.7236 253.248C94.3796 254.592 93.2969 256.459 92.4756 258.848C91.6542 261.2 91.2436 264.224 91.2436 267.92L83.2356 264.504C83.2356 259.352 84.2249 254.685 86.2036 250.504C88.2196 246.323 91.1689 243 95.0516 240.536C98.9342 238.035 103.713 236.784 109.388 236.784C113.868 236.784 117.564 237.531 120.476 239.024C123.388 240.517 125.702 242.421 127.42 244.736C129.137 247.051 130.406 249.515 131.228 252.128C132.049 254.741 132.572 257.224 132.796 259.576C133.057 261.891 133.188 263.776 133.188 265.232V299H119.524ZM77.5796 299V238.52H89.6196V257.28H91.2436V299H77.5796ZM174.313 300.68C168.19 300.68 162.814 299.355 158.185 296.704C153.555 294.053 149.934 290.376 147.321 285.672C144.745 280.968 143.457 275.555 143.457 269.432C143.457 262.824 144.726 257.093 147.265 252.24C149.803 247.349 153.331 243.56 157.849 240.872C162.366 238.184 167.593 236.84 173.529 236.84C179.801 236.84 185.121 238.315 189.489 241.264C193.894 244.176 197.161 248.301 199.289 253.64C201.417 258.979 202.219 265.269 201.697 272.512H188.313V267.584C188.275 261.013 187.118 256.216 184.841 253.192C182.563 250.168 178.979 248.656 174.089 248.656C168.563 248.656 164.457 250.373 161.769 253.808C159.081 257.205 157.737 262.189 157.737 268.76C157.737 274.883 159.081 279.624 161.769 282.984C164.457 286.344 168.377 288.024 173.529 288.024C176.851 288.024 179.707 287.296 182.097 285.84C184.523 284.347 186.39 282.2 187.697 279.4L201.025 283.432C198.71 288.883 195.126 293.12 190.273 296.144C185.457 299.168 180.137 300.68 174.313 300.68ZM153.481 272.512V262.32H195.089V272.512H153.481ZM240.456 300.68C234.221 300.68 228.901 299.299 224.496 296.536C220.09 293.736 216.712 289.928 214.36 285.112C212.045 280.296 210.869 274.845 210.832 268.76C210.869 262.563 212.082 257.075 214.472 252.296C216.898 247.48 220.333 243.709 224.776 240.984C229.218 238.221 234.501 236.84 240.624 236.84C247.493 236.84 253.298 238.576 258.04 242.048C262.818 245.483 265.936 250.187 267.392 256.16L253.952 259.8C252.906 256.552 251.17 254.032 248.744 252.24C246.317 250.411 243.554 249.496 240.456 249.496C236.946 249.496 234.053 250.336 231.776 252.016C229.498 253.659 227.818 255.936 226.736 258.848C225.653 261.76 225.112 265.064 225.112 268.76C225.112 274.509 226.4 279.157 228.976 282.704C231.552 286.251 235.378 288.024 240.456 288.024C244.04 288.024 246.858 287.203 248.912 285.56C251.002 283.917 252.57 281.547 253.616 278.448L267.392 281.528C265.525 287.688 262.258 292.429 257.592 295.752C252.925 299.037 247.213 300.68 240.456 300.68ZM303.685 300.68C297.637 300.68 292.354 299.317 287.837 296.592C283.319 293.867 279.81 290.115 277.309 285.336C274.845 280.52 273.613 274.995 273.613 268.76C273.613 262.413 274.882 256.851 277.421 252.072C279.959 247.293 283.487 243.56 288.005 240.872C292.522 238.184 297.749 236.84 303.685 236.84C309.77 236.84 315.071 238.203 319.589 240.928C324.106 243.653 327.615 247.424 330.117 252.24C332.618 257.019 333.869 262.525 333.869 268.76C333.869 275.032 332.599 280.576 330.061 285.392C327.559 290.171 324.05 293.923 319.533 296.648C315.015 299.336 309.733 300.68 303.685 300.68ZM303.685 288.024C309.061 288.024 313.055 286.232 315.669 282.648C318.282 279.064 319.589 274.435 319.589 268.76C319.589 262.899 318.263 258.232 315.613 254.76C312.962 251.251 308.986 249.496 303.685 249.496C300.063 249.496 297.077 250.317 294.725 251.96C292.41 253.565 290.693 255.824 289.573 258.736C288.453 261.611 287.893 264.952 287.893 268.76C287.893 274.621 289.218 279.307 291.869 282.816C294.557 286.288 298.495 288.024 303.685 288.024ZM346.207 299V238.52H358.135V253.248L356.679 251.344C357.426 249.328 358.415 247.499 359.647 245.856C360.917 244.176 362.429 242.795 364.183 241.712C365.677 240.704 367.319 239.92 369.111 239.36C370.941 238.763 372.807 238.408 374.711 238.296C376.615 238.147 378.463 238.221 380.255 238.52V251.12C378.463 250.597 376.391 250.429 374.039 250.616C371.725 250.803 369.634 251.456 367.767 252.576C365.901 253.584 364.37 254.872 363.175 256.44C362.018 258.008 361.159 259.8 360.599 261.816C360.039 263.795 359.759 265.941 359.759 268.256V299H346.207ZM417.344 300.68C411.221 300.68 405.845 299.355 401.216 296.704C396.586 294.053 392.965 290.376 390.352 285.672C387.776 280.968 386.488 275.555 386.488 269.432C386.488 262.824 387.757 257.093 390.296 252.24C392.834 247.349 396.362 243.56 400.88 240.872C405.397 238.184 410.624 236.84 416.56 236.84C422.832 236.84 428.152 238.315 432.52 241.264C436.925 244.176 440.192 248.301 442.32 253.64C444.448 258.979 445.25 265.269 444.728 272.512H431.344V267.584C431.306 261.013 430.149 256.216 427.872 253.192C425.594 250.168 422.01 248.656 417.12 248.656C411.594 248.656 407.488 250.373 404.8 253.808C402.112 257.205 400.768 262.189 400.768 268.76C400.768 274.883 402.112 279.624 404.8 282.984C407.488 286.344 411.408 288.024 416.56 288.024C419.882 288.024 422.738 287.296 425.128 285.84C427.554 284.347 429.421 282.2 430.728 279.4L444.056 283.432C441.741 288.883 438.157 293.12 433.304 296.144C428.488 299.168 423.168 300.68 417.344 300.68ZM396.512 272.512V262.32H438.12V272.512H396.512Z" fill="black"/>
<g clip-path="url(#clip0_25_17)">
<path d="M192.967 156C189.473 156 185.992 155 182.952 153.013L153.689 133.882C148.443 130.451 145.317 124.649 145.317 118.355V57.6777C145.317 51.8396 147.756 46.2237 152.022 42.2617L192.918 4.25834C198.275 -0.728135 206.293 -1.40699 212.41 2.59206L237.382 18.9215C240.177 20.7482 240.569 24.735 238.166 27.0677L233.164 31.9308C231.424 33.6217 228.751 33.8809 226.729 32.5603L203.865 17.6008L163.668 54.9623C162.92 55.6659 162.479 56.6533 162.479 57.6777V118.355C162.479 118.774 162.688 119.169 163.043 119.391L192.305 138.523C192.452 138.621 192.918 138.93 193.556 138.572C194.193 138.227 194.193 137.671 194.193 137.486V87.3991C194.193 81.7338 196.51 76.2412 200.556 72.3039L236.266 37.5838C243.29 30.7582 253.907 29.7214 262.096 35.0782L295.195 56.7274C301.116 60.603 304.683 67.2187 304.683 74.3281V123.909C304.683 128.92 302.575 133.795 298.664 136.906C293.185 141.25 285.743 141.497 280.067 137.795L250.425 118.416C244.48 114.528 240.937 107.95 240.937 100.816V66.9348L248.537 59.5292C252.117 56.0485 258.099 58.6035 258.099 63.6146V100.816C258.099 102.075 258.724 103.235 259.779 103.926L287.521 122.07V74.3281C287.521 73.0692 286.896 71.9089 285.841 71.2177L252.742 49.5686C251.296 48.6182 249.42 48.8033 248.182 50.0129L212.471 84.7331C211.748 85.4366 211.343 86.387 211.343 87.3991V136.931C211.343 143.448 208.23 149.693 202.75 153.161C199.746 155.062 196.338 156.012 192.955 156.012L192.967 156Z" fill="black"/>
</g>
<defs>
<clipPath id="clip0_25_17">
<rect width="159.367" height="156" fill="white" transform="translate(145.317)"/>
</clipPath>
</defs>
</svg>
