<svg width="450" height="315" viewBox="0 0 450 315" fill="none" xmlns="http://www.w3.org/2000/svg">
<path d="M34.552 300.686C28.504 300.686 23.2213 299.323 18.704 296.598C14.1867 293.872 10.6773 290.12 8.176 285.342C5.712 280.526 4.48 275 4.48 268.766C4.48 262.419 5.74933 256.856 8.288 252.078C10.8267 247.299 14.3547 243.566 18.872 240.878C23.3893 238.19 28.616 236.846 34.552 236.846C40.6373 236.846 45.9387 238.208 50.456 240.934C54.9733 243.659 58.4827 247.43 60.984 252.246C63.4853 257.024 64.736 262.531 64.736 268.766C64.736 275.038 63.4667 280.582 60.928 285.398C58.4267 290.176 54.9173 293.928 50.4 296.654C45.8827 299.342 40.6 300.686 34.552 300.686ZM34.552 288.03C39.928 288.03 43.9227 286.238 46.536 282.654C49.1493 279.07 50.456 274.44 50.456 268.766C50.456 262.904 49.1307 258.238 46.48 254.766C43.8293 251.256 39.8533 249.502 34.552 249.502C30.9307 249.502 27.944 250.323 25.592 251.966C23.2773 253.571 21.56 255.83 20.44 258.742C19.32 261.616 18.76 264.958 18.76 268.766C18.76 274.627 20.0853 279.312 22.736 282.822C25.424 286.294 29.3627 288.03 34.552 288.03ZM118.906 299.006V269.886C118.906 267.982 118.776 265.872 118.514 263.558C118.253 261.243 117.637 259.022 116.666 256.894C115.733 254.728 114.314 252.955 112.41 251.574C110.544 250.192 108.005 249.502 104.794 249.502C103.077 249.502 101.378 249.782 99.6984 250.342C98.0184 250.902 96.4877 251.872 95.1064 253.254C93.7624 254.598 92.6797 256.464 91.8584 258.854C91.037 261.206 90.6264 264.23 90.6264 267.926L82.6184 264.51C82.6184 259.358 83.6077 254.691 85.5864 250.51C87.6024 246.328 90.5517 243.006 94.4344 240.542C98.317 238.04 103.096 236.79 108.77 236.79C113.25 236.79 116.946 237.536 119.858 239.03C122.77 240.523 125.085 242.427 126.802 244.742C128.52 247.056 129.789 249.52 130.61 252.134C131.432 254.747 131.954 257.23 132.178 259.582C132.44 261.896 132.57 263.782 132.57 265.238V299.006H118.906ZM76.9624 299.006V238.526H89.0024V257.286H90.6264V299.006H76.9624ZM173.695 300.686C167.573 300.686 162.197 299.36 157.567 296.71C152.938 294.059 149.317 290.382 146.703 285.678C144.127 280.974 142.839 275.56 142.839 269.438C142.839 262.83 144.109 257.099 146.647 252.246C149.186 247.355 152.714 243.566 157.231 240.878C161.749 238.19 166.975 236.846 172.911 236.846C179.183 236.846 184.503 238.32 188.871 241.27C193.277 244.182 196.543 248.307 198.671 253.646C200.799 258.984 201.602 265.275 201.079 272.518H187.695V267.59C187.658 261.019 186.501 256.222 184.223 253.198C181.946 250.174 178.362 248.662 173.471 248.662C167.946 248.662 163.839 250.379 161.151 253.814C158.463 257.211 157.119 262.195 157.119 268.766C157.119 274.888 158.463 279.63 161.151 282.99C163.839 286.35 167.759 288.03 172.911 288.03C176.234 288.03 179.09 287.302 181.479 285.846C183.906 284.352 185.773 282.206 187.079 279.406L200.407 283.438C198.093 288.888 194.509 293.126 189.655 296.15C184.839 299.174 179.519 300.686 173.695 300.686ZM152.863 272.518V262.326H194.471V272.518H152.863ZM239.838 300.686C233.604 300.686 228.284 299.304 223.878 296.542C219.473 293.742 216.094 289.934 213.742 285.118C211.428 280.302 210.252 274.851 210.214 268.766C210.252 262.568 211.465 257.08 213.854 252.302C216.281 247.486 219.716 243.715 224.158 240.99C228.601 238.227 233.884 236.846 240.006 236.846C246.876 236.846 252.681 238.582 257.422 242.054C262.201 245.488 265.318 250.192 266.774 256.166L253.334 259.806C252.289 256.558 250.553 254.038 248.126 252.246C245.7 250.416 242.937 249.502 239.838 249.502C236.329 249.502 233.436 250.342 231.158 252.022C228.881 253.664 227.201 255.942 226.118 258.854C225.036 261.766 224.494 265.07 224.494 268.766C224.494 274.515 225.782 279.163 228.358 282.71C230.934 286.256 234.761 288.03 239.838 288.03C243.422 288.03 246.241 287.208 248.294 285.566C250.385 283.923 251.953 281.552 252.998 278.454L266.774 281.534C264.908 287.694 261.641 292.435 256.974 295.758C252.308 299.043 246.596 300.686 239.838 300.686ZM303.068 300.686C297.02 300.686 291.737 299.323 287.22 296.598C282.702 293.872 279.193 290.12 276.692 285.342C274.228 280.526 272.996 275 272.996 268.766C272.996 262.419 274.265 256.856 276.804 252.078C279.342 247.299 282.87 243.566 287.388 240.878C291.905 238.19 297.132 236.846 303.068 236.846C309.153 236.846 314.454 238.208 318.972 240.934C323.489 243.659 326.998 247.43 329.5 252.246C332.001 257.024 333.252 262.531 333.252 268.766C333.252 275.038 331.982 280.582 329.444 285.398C326.942 290.176 323.433 293.928 318.916 296.654C314.398 299.342 309.116 300.686 303.068 300.686ZM303.068 288.03C308.444 288.03 312.438 286.238 315.052 282.654C317.665 279.07 318.972 274.44 318.972 268.766C318.972 262.904 317.646 258.238 314.996 254.766C312.345 251.256 308.369 249.502 303.068 249.502C299.446 249.502 296.46 250.323 294.108 251.966C291.793 253.571 290.076 255.83 288.956 258.742C287.836 261.616 287.276 264.958 287.276 268.766C287.276 274.627 288.601 279.312 291.252 282.822C293.94 286.294 297.878 288.03 303.068 288.03ZM345.59 299.006V238.526H357.518V253.254L356.062 251.35C356.809 249.334 357.798 247.504 359.03 245.862C360.299 244.182 361.811 242.8 363.566 241.718C365.059 240.71 366.702 239.926 368.494 239.366C370.323 238.768 372.19 238.414 374.094 238.302C375.998 238.152 377.846 238.227 379.638 238.526V251.126C377.846 250.603 375.774 250.435 373.422 250.622C371.107 250.808 369.017 251.462 367.15 252.582C365.283 253.59 363.753 254.878 362.558 256.446C361.401 258.014 360.542 259.806 359.982 261.822C359.422 263.8 359.142 265.947 359.142 268.262V299.006H345.59ZM416.727 300.686C410.604 300.686 405.228 299.36 400.599 296.71C395.969 294.059 392.348 290.382 389.735 285.678C387.159 280.974 385.871 275.56 385.871 269.438C385.871 262.83 387.14 257.099 389.679 252.246C392.217 247.355 395.745 243.566 400.263 240.878C404.78 238.19 410.007 236.846 415.943 236.846C422.215 236.846 427.535 238.32 431.903 241.27C436.308 244.182 439.575 248.307 441.703 253.646C443.831 258.984 444.633 265.275 444.111 272.518H430.727V267.59C430.689 261.019 429.532 256.222 427.255 253.198C424.977 250.174 421.393 248.662 416.503 248.662C410.977 248.662 406.871 250.379 404.183 253.814C401.495 257.211 400.151 262.195 400.151 268.766C400.151 274.888 401.495 279.63 404.183 282.99C406.871 286.35 410.791 288.03 415.943 288.03C419.265 288.03 422.121 287.302 424.511 285.846C426.937 284.352 428.804 282.206 430.111 279.406L443.439 283.438C441.124 288.888 437.54 293.126 432.687 296.15C427.871 299.174 422.551 300.686 416.727 300.686ZM395.895 272.518V262.326H437.503V272.518H395.895Z" fill="white"/>
<path d="M192.967 155.988C189.473 155.988 185.992 154.988 182.952 153.001L153.689 133.871C148.443 130.44 145.317 124.64 145.317 118.346V57.6742C145.317 51.8366 147.756 46.2212 152.022 42.2595L192.918 4.2596C198.275 -0.726421 206.293 -1.40521 212.41 2.59348L237.382 18.9215C240.177 20.748 240.569 24.7344 238.166 27.0669L233.164 31.9295C231.424 33.6203 228.751 33.8795 226.729 32.559L203.865 17.6009L163.668 54.959C162.92 55.6625 162.479 56.6498 162.479 57.6742V118.346C162.479 118.765 162.688 119.16 163.043 119.382L192.305 138.512C192.452 138.611 192.918 138.919 193.556 138.561C194.193 138.216 194.193 137.66 194.193 137.475V87.3928C194.193 81.728 196.51 76.236 200.556 72.299L236.266 37.582C243.29 30.7571 253.907 29.7204 262.096 35.0767L295.195 56.7239C301.116 60.5992 304.683 67.2143 304.683 74.3231V123.899C304.683 128.91 302.575 133.785 298.664 136.895C293.185 141.239 285.743 141.486 280.067 137.784L250.425 118.407C244.48 114.52 240.937 107.942 240.937 100.808V66.9304L248.537 59.5254C252.117 56.0451 258.099 58.5998 258.099 63.6105V100.808C258.099 102.067 258.724 103.227 259.779 103.918L287.521 122.06V74.3231C287.521 73.0642 286.896 71.9041 285.841 71.213L252.742 49.5657C251.296 48.6154 249.42 48.8006 248.182 50.01L212.471 84.7271C211.748 85.4305 211.343 86.3808 211.343 87.3928V136.92C211.343 143.436 208.23 149.681 202.75 153.149C199.746 155.05 196.338 156 192.955 156L192.967 155.988Z" fill="white"/>
</svg>
