<svg width="142" height="139" viewBox="0 0 142 139" fill="none" xmlns="http://www.w3.org/2000/svg">
<g clip-path="url(#clip0_1_88)">
<path d="M42.458 138.057C39.3449 138.057 36.2428 137.172 33.5338 135.413L7.46046 118.482C2.78538 115.446 0 110.312 0 104.741V51.0434C0 45.8768 2.17369 40.9068 5.97492 37.4005L42.4143 3.76832C47.1877 -0.644605 54.3314 -1.24537 59.782 2.2937L82.0323 16.7449C84.5228 18.3616 84.8723 21.8897 82.7314 23.9542L78.2748 28.2579C76.7237 29.7543 74.3425 29.9837 72.5402 28.8149L52.1686 15.5762L16.3518 48.6403C15.6855 49.2629 15.2923 50.1368 15.2923 51.0434V104.741C15.2923 105.113 15.478 105.462 15.7948 105.659L41.8682 122.59C41.9992 122.677 42.4143 122.95 42.9823 122.633C43.5503 122.327 43.5503 121.836 43.5503 121.672V77.3462C43.5503 72.3325 45.6148 67.4717 49.2194 63.9872L81.0383 33.2606C87.2972 27.2202 96.7566 26.3026 104.053 31.0432L133.546 50.2023C138.821 53.6322 142 59.4869 142 65.7786V109.657C142 114.091 140.121 118.406 136.637 121.159C131.754 125.004 125.124 125.222 120.066 121.945L93.6545 104.796C88.3568 101.355 85.2 95.5331 85.2 89.2196V59.2357L91.9723 52.6819C95.1618 49.6016 100.492 51.8626 100.492 56.2974V89.2196C100.492 90.3337 101.049 91.3605 101.989 91.9722L126.708 108.029V65.7786C126.708 64.6645 126.151 63.6377 125.211 63.026L95.7189 43.8669C94.43 43.0259 92.7588 43.1897 91.6555 44.2602L59.8366 74.9868C59.1922 75.6094 58.8317 76.4505 58.8317 77.3462V121.18C58.8317 126.948 56.0572 132.475 51.1746 135.544C48.4985 137.226 45.4618 138.068 42.4471 138.068L42.458 138.057Z" fill="white"/>
</g>
<defs>
<clipPath id="clip0_1_88">
<rect width="142" height="138.057" fill="white"/>
</clipPath>
</defs>
</svg>
