<svg width="692" height="153" viewBox="0 0 692 153" fill="none" xmlns="http://www.w3.org/2000/svg">
<path d="M243.944 120.68C235.88 120.68 228.973 118.925 223.224 115.416C217.475 111.869 213.051 106.941 209.952 100.632C206.891 94.3227 205.36 87.0053 205.36 78.68C205.36 70.3547 206.891 63.0373 209.952 56.728C213.051 50.4187 217.475 45.5093 223.224 42C228.973 38.4533 235.88 36.68 243.944 36.68C252.008 36.68 258.915 38.4533 264.664 42C270.451 45.5093 274.875 50.4187 277.936 56.728C281.035 63.0373 282.584 70.3547 282.584 78.68C282.584 87.0053 281.035 94.3227 277.936 100.632C274.875 106.941 270.451 111.869 264.664 115.416C258.915 118.925 252.008 120.68 243.944 120.68ZM243.944 107.968C249.357 108.005 253.856 106.811 257.44 104.384C261.061 101.957 263.768 98.5413 265.56 94.136C267.389 89.7307 268.304 84.5787 268.304 78.68C268.304 72.7813 267.389 67.6667 265.56 63.336C263.768 58.968 261.061 55.5707 257.44 53.144C253.856 50.7173 249.357 49.4667 243.944 49.392C238.531 49.3547 234.032 50.5493 230.448 52.976C226.864 55.4027 224.157 58.8187 222.328 63.224C220.536 67.6293 219.64 72.7813 219.64 78.68C219.64 84.5787 220.536 89.712 222.328 94.08C224.12 98.4107 226.808 101.789 230.392 104.216C234.013 106.643 238.531 107.893 243.944 107.968ZM293.731 119V38.36H307.395L344.803 95.2V38.36H358.467V119H344.803L307.395 62.16V119H293.731ZM374.121 119V38.36H426.201V51.016H387.617V70.896H419.481V83.552H387.617V106.344H426.201V119H374.121ZM470.897 120.68C462.833 120.68 455.926 118.925 450.177 115.416C444.428 111.869 440.004 106.941 436.905 100.632C433.844 94.3227 432.313 87.0053 432.313 78.68C432.313 70.3547 433.844 63.0373 436.905 56.728C440.004 50.4187 444.428 45.5093 450.177 42C455.926 38.4533 462.833 36.68 470.897 36.68C480.193 36.68 487.94 39.0133 494.137 43.68C500.334 48.3093 504.684 54.5627 507.185 62.44L493.577 66.192C492.009 60.928 489.34 56.8213 485.569 53.872C481.798 50.8853 476.908 49.392 470.897 49.392C465.484 49.392 460.966 50.6053 457.345 53.032C453.761 55.4587 451.054 58.8747 449.225 63.28C447.433 67.648 446.518 72.7813 446.481 78.68C446.481 84.5787 447.377 89.7307 449.169 94.136C450.998 98.504 453.724 101.901 457.345 104.328C460.966 106.755 465.484 107.968 470.897 107.968C476.908 107.968 481.798 106.475 485.569 103.488C489.34 100.501 492.009 96.3947 493.577 91.168L507.185 94.92C504.684 102.797 500.334 109.069 494.137 113.736C487.94 118.365 480.193 120.68 470.897 120.68ZM546.193 120.68C540.145 120.68 534.862 119.317 530.345 116.592C525.827 113.867 522.318 110.115 519.817 105.336C517.353 100.52 516.121 94.9947 516.121 88.76C516.121 82.4133 517.39 76.8507 519.929 72.072C522.467 67.2933 525.995 63.56 530.513 60.872C535.03 58.184 540.257 56.84 546.193 56.84C552.278 56.84 557.579 58.2027 562.097 60.928C566.614 63.6533 570.123 67.424 572.625 72.24C575.126 77.0187 576.377 82.5253 576.377 88.76C576.377 95.032 575.107 100.576 572.569 105.392C570.067 110.171 566.558 113.923 562.041 116.648C557.523 119.336 552.241 120.68 546.193 120.68ZM546.193 108.024C551.569 108.024 555.563 106.232 558.177 102.648C560.79 99.064 562.097 94.4347 562.097 88.76C562.097 82.8987 560.771 78.232 558.121 74.76C555.47 71.2507 551.494 69.496 546.193 69.496C542.571 69.496 539.585 70.3173 537.233 71.96C534.918 73.5653 533.201 75.824 532.081 78.736C530.961 81.6107 530.401 84.952 530.401 88.76C530.401 94.6213 531.726 99.3067 534.377 102.816C537.065 106.288 541.003 108.024 546.193 108.024ZM588.715 119V58.52H600.643V73.248L599.187 71.344C599.934 69.328 600.923 67.4987 602.155 65.856C603.424 64.176 604.936 62.7947 606.691 61.712C608.184 60.704 609.827 59.92 611.619 59.36C613.448 58.7627 615.315 58.408 617.219 58.296C619.123 58.1467 620.971 58.2213 622.763 58.52V71.12C620.971 70.5973 618.899 70.4293 616.547 70.616C614.232 70.8027 612.142 71.456 610.275 72.576C608.408 73.584 606.878 74.872 605.683 76.44C604.526 78.008 603.667 79.8 603.107 81.816C602.547 83.7947 602.267 85.9413 602.267 88.256V119H588.715ZM659.852 120.68C653.729 120.68 648.353 119.355 643.724 116.704C639.094 114.053 635.473 110.376 632.86 105.672C630.284 100.968 628.996 95.5547 628.996 89.432C628.996 82.824 630.265 77.0933 632.804 72.24C635.342 67.3493 638.87 63.56 643.388 60.872C647.905 58.184 653.132 56.84 659.068 56.84C665.34 56.84 670.66 58.3147 675.028 61.264C679.433 64.176 682.7 68.3013 684.828 73.64C686.956 78.9787 687.758 85.2693 687.236 92.512H673.852V87.584C673.814 81.0133 672.657 76.216 670.38 73.192C668.102 70.168 664.518 68.656 659.628 68.656C654.102 68.656 649.996 70.3733 647.308 73.808C644.62 77.2053 643.276 82.1893 643.276 88.76C643.276 94.8827 644.62 99.624 647.308 102.984C649.996 106.344 653.916 108.024 659.068 108.024C662.39 108.024 665.246 107.296 667.636 105.84C670.062 104.347 671.929 102.2 673.236 99.4L686.564 103.432C684.249 108.883 680.665 113.12 675.812 116.144C670.996 119.168 665.676 120.68 659.852 120.68ZM639.02 92.512V82.32H680.628V92.512H639.02Z" fill="black"/>
<g clip-path="url(#clip0_22_5)">
<path d="M42.458 146C39.3449 146 36.2428 145.109 33.5338 143.338L7.46046 126.292C2.78538 123.235 0 118.066 0 112.457V58.3921C0 53.1902 2.17369 48.1862 5.97492 44.656L42.4143 10.794C47.1877 6.35097 54.3314 5.7461 59.782 9.30935L82.0323 23.8593C84.5228 25.487 84.8723 29.0392 82.7314 31.1178L78.2748 35.4509C76.7237 36.9576 74.3425 37.1885 72.5402 36.0118L52.1686 22.6826L16.3518 55.9726C15.6855 56.5995 15.2923 57.4793 15.2923 58.3921V112.457C15.2923 112.831 15.478 113.183 15.7948 113.381L41.8682 130.427C41.9992 130.515 42.4143 130.79 42.9823 130.471C43.5503 130.163 43.5503 129.668 43.5503 129.503V84.8746C43.5503 79.8266 45.6148 74.9327 49.2194 71.4244L81.0383 40.4879C87.2972 34.4061 96.7566 33.4823 104.053 38.2553L133.546 57.5453C138.821 60.9986 142 66.8933 142 73.228V117.406C142 121.871 140.121 126.215 136.637 128.986C131.754 132.858 125.124 133.078 120.066 129.778L93.6545 112.512C88.3568 109.048 85.2 103.186 85.2 96.8291V66.6404L91.9723 60.0418C95.1618 56.9404 100.492 59.2169 100.492 63.682V96.8291C100.492 97.9509 101.049 98.9846 101.989 99.6005L126.708 115.767V73.228C126.708 72.1063 126.151 71.0725 125.211 70.4566L95.7189 51.1666C94.43 50.3198 92.7588 50.4848 91.6555 51.5625L59.8366 82.4991C59.1922 83.126 58.8317 83.9728 58.8317 84.8746V129.008C58.8317 134.815 56.0572 140.38 51.1746 143.47C48.4985 145.164 45.4618 146.011 42.4471 146.011L42.458 146Z" fill="black"/>
</g>
<defs>
<clipPath id="clip0_22_5">
<rect width="142" height="139" fill="white" transform="translate(0 7)"/>
</clipPath>
</defs>
</svg>
